# xmcd
#
# Track frame offsets: 
#        150
#        13135
#        26587
#        40252
#        53239
#        66025
#        79680
#        91730
#        103857
#        115195
#        127275
#        140257
#        152027
#        163272
#        175090
#        185587
#        196667
#        208485
#        218855
#        231347
#
# Disc length: 3229 seconds
#
# Revision: 0
# Processed by: cddbd v1.5.1PL0 Copyright (c) Steve Scherf et al.
# Submitted via: ExactAudioCopy v0.95a5
#
DISCID=200c9b14
DTITLE=Johnson, Robert - Hellhound on my Trail
DYEAR=2000
DGENRE=Delta-Blues
TTITLE0=Kindheartes Woman Blues
TTITLE1=I believe I'll dust my broom
TTITLE2=Sweet Home Chicago
TTITLE3=Rambling on my mind
TTITLE4=Come on my Kitchen
TTITLE5=Terraplane Blues
TTITLE6=Phonograph Blues
TTITLE7=Cross Roads Blues
TTITLE8=Walking Blues
TTITLE9=Last fair Deal gone down
TTITLE10=Preaching Blues
TTITLE11=If I had Posession over Judgement Day
TTITLE12=Stones in my Passway
TTITLE13=Hellhound on my Trail
TTITLE14=Malted Milk
TTITLE15=Drunken hearted Man
TTITLE16=Me and the Devil Blues
TTITLE17=Stop breakin' down Blues
TTITLE18=Traveling Riverside Blues
TTITLE19=Love in Vain
EXTD=
EXTT0=
EXTT1=
EXTT2=
EXTT3=
EXTT4=
EXTT5=
EXTT6=
EXTT7=
EXTT8=
EXTT9=
EXTT10=
EXTT11=
EXTT12=
EXTT13=
EXTT14=
EXTT15=
EXTT16=
EXTT17=
EXTT18=
EXTT19=
PLAYORDER=
